<svg fill="none" height="54" viewBox="0 0 54 54" width="54" xmlns="http://www.w3.org/2000/svg"><circle cx="27" cy="27" fill="#007aff" r="27"/><path clip-rule="evenodd" d="m32.7594 37.2514 1.0195 1.727c3.8201-2.1914 6.2211-6.2186 6.2211-10.6566 0-6.8052-5.5964-12.3218-12.5-12.3218s-12.5 5.5166-12.5 12.3218c0 4.4534 2.4178 8.4924 6.2589 10.6782l1.0134-1.7305c-3.2201-1.8324-5.2453-5.2156-5.2453-8.9477 0-5.7016 4.6889-10.3237 10.473-10.3237s10.473 4.6221 10.473 10.3237c0 3.7193-2.0111 7.0925-5.2136 8.9296zm-1.0298-1.3394-.9773-1.7505c2.1445-1.1634 3.5045-3.3832 3.5045-5.8397 0-3.6785-3.0251-6.6604-6.7568-6.6604s-6.7568 2.9819-6.7568 6.6604c0 2.4604 1.3644 4.6833 3.5144 5.845l-.9743 1.7522c-2.7928-1.5091-4.5671-4.3997-4.5671-7.5972 0-4.782 3.9327-8.6586 8.7838-8.6586 4.8512 0 8.7838 3.8766 8.7838 8.6586 0 3.1923-1.7685 6.079-4.5542 7.5902zm-2.9551-4.868.8509 1.8135c1.7787-.8109 2.9422-2.5695 2.9422-4.5357 0-2.7589-2.2689-4.9953-5.0676-4.9953s-5.0676 2.2364-5.0676 4.9953c0 1.9779 1.1773 3.7449 2.972 4.5492l.839-1.8189c-1.0776-.483-1.7839-1.5431-1.7839-2.7303 0-1.6553 1.3613-2.9972 3.0405-2.9972s3.0405 1.3419 3.0405 2.9972c0 1.1802-.6979 2.2352-1.766 2.7222zm-1.2745-1.3901c.7463 0 1.3514-.5964 1.3514-1.3321s-.6051-1.3321-1.3514-1.3321-1.3514.5964-1.3514 1.3321.6051 1.3321 1.3514 1.3321z" fill="#fff" fill-rule="evenodd"/></svg>